<mxfile host="app.diagrams.net" modified="2024-01-10T03:24:29.973Z" agent="Mozilla/5.0 (Macintosh; Intel Mac OS X 10_15_7) AppleWebKit/537.36 (KHTML, like Gecko) Chrome/120.0.0.0 Safari/537.36" version="21.6.7" etag="RZttIn8cloL7-vUbXI8b" type="github">
  <diagram name="第 1 页" id="Z6NcLqhWtqir-2_cZ74p">
    <mxGraphModel>
      <root>
        <mxCell id="0" />
        <mxCell id="1" parent="0" />
      </root>
    </mxGraphModel>
  </diagram>
</mxfile>
